<?xml version="1.0" encoding="UTF-8"?>
<svg width="38px" height="48px" viewBox="0 0 38 48" version="1.1" xmlns="http://www.w3.org/2000/svg" xmlns:xlink="http://www.w3.org/1999/xlink">
    <!-- Generator: Sketch 46.2 (44496) - http://www.bohemiancoding.com/sketch -->
    <title>noun_1045289_cc</title>
    <desc>Created with Sketch.</desc>
    <defs></defs>
    <g id="Page-1" stroke="none" stroke-width="1" fill="none" fill-rule="evenodd">
        <g id="noun_1045289_cc" fill-rule="nonzero" fill="#FFFFFF">
            <g id="Group">
                <rect id="Rectangle-path" x="11.9" y="19" width="17.1" height="2"></rect>
                <path d="M32.9,48 L0,48 L0,5 L32.9,5 L32.9,48 Z M2,46 L30.9,46 L30.9,7 L2,7 L2,46 Z" id="Shape"></path>
                <polygon id="Shape" points="38 43 31.9 43 31.9 41 36 41 36 2 7.1 2 7.1 5.9 5.1 5.9 5.1 0 38 0"></polygon>
                <path d="M10,20.9 L4.1,20.9 L4.1,15 L10,15 L10,20.9 Z M6.1,18.9 L8,18.9 L8,17 L6.1,17 L6.1,18.9 Z" id="Shape"></path>
                <rect id="Rectangle-path" x="4" y="24" width="25" height="2"></rect>
                <rect id="Rectangle-path" x="4" y="29" width="25" height="2"></rect>
                <rect id="Rectangle-path" x="4" y="34" width="25" height="2"></rect>
            </g>
        </g>
    </g>
</svg>