<svg xmlns="http://www.w3.org/2000/svg" width="192" height="40" viewBox="0 0 192 40">
  <g fill="none" fill-rule="evenodd" transform="translate(0 .078)">
    <polygon fill="#1D1D1B" points="191.498 32.315 191.498 25.969 182.572 25.969 182.572 19.367 190.518 19.367 190.518 13.131 182.572 13.131 182.572 7.226 191.358 7.226 191.358 .954 175.012 .954 175.012 32.315"/>
    <polygon fill="#1D1D1B" points="174.032 32.315 165.911 15.405 172.877 .954 164.581 .954 159.226 13.095 159.226 .954 151.77 .954 151.77 32.315 159.226 32.315 159.226 19.403 165.141 32.315"/>
    <path fill="#1D1D1B" d="M150.160283,22.9982588 C150.160283,13.2048044 138.329478,13.4982412 138.329478,9.06000904 C138.329478,7.62950446 139.169535,6.60247553 141.129668,6.60247553 C142.77443,6.60247553 144.699561,7.29938802 146.799704,8.36309655 L149.249871,3.00787429 C146.520035,1.24725327 143.684842,0.366942764 140.639635,0.366942764 C134.82924,0.366942764 130.803966,3.70441998 130.803966,9.57315671 C130.803966,19.3669779 142.424406,18.8534634 142.424406,23.5851324 C142.424406,25.3453867 141.409687,26.3724156 139.449204,26.3724156 C137.62943,26.3724156 135.42393,25.5658311 133.079121,24.2449985 L130.628954,29.9673836 C133.884176,32.0214415 136.754371,32.8647056 140.009592,32.8647056 C145.539968,32.8647056 150.160283,29.7106264 150.160283,22.9982588 Z"/>
    <polygon fill="#1D1D1B" points="131.959 .954 124.084 .954 121.808 7.886 120.478 12.068 119.043 7.776 116.768 .954 108.472 .954 116.768 20.944 116.768 32.315 123.873 32.315 123.873 20.944"/>
    <path fill="#1D1D1B" d="M107.70229,29.3068573 L107.70229,0.953523 L100.106773,0.953523 L100.106773,28.9771077 C100.106773,31.728078 99.4767305,33.2686214 97.2015758,33.2686214 C96.3615187,33.2686214 95.4164544,33.1215362 94.5763973,32.9748178 L94.4713901,39.1736709 C95.6614711,39.5041542 96.9565591,39.6505058 98.7416806,39.6505058 C103.992038,39.614193 107.70229,35.9825453 107.70229,29.3068573"/>
    <path fill="#C93C2E" d="M84.0406457 26.2994232C83.8656338 26.2994232 82.7455576 26.2623768 82.1155148 26.1890176L82.1155148 7.04263079C82.7455576 7.00558439 83.7606267 7.00558439 84.0056433 7.00558439 88.6259576 7.00558439 89.9910504 10.0503584 89.9910504 16.5059688 89.9910504 23.1816568 88.3809409 26.2994232 84.0406457 26.2994232M83.9006362.843777623C80.8204267.843777623 77.6352101.880457227 74.6250053.95344964L74.6250053 32.3515579C77.0401696 32.3882375 79.5953434 32.4615967 83.3756005 32.4615967 93.3862813 32.4245503 97.7965813 27.0696949 97.7965813 16.3959299 97.7965813 4.43801207 93.5962956.843777623 83.9006362.843777623M60.9390745 13.7914579L58.9789412 13.7914579 58.9789412 7.00573111C59.6439865 6.9690515 60.3090317 6.89569229 60.9390745 6.89569229 64.2643007 6.89569229 64.8593412 8.28951727 64.8593412 10.3068955 64.8593412 12.1041961 64.1592936 13.7914579 60.9390745 13.7914579M72.5598649 9.90341987C72.5598649 4.21808116 69.164634.916916754 61.534115.916916754 58.313896.916916754 54.2186175.916916754 51.5234342 1.02695557L51.5234342 32.3517046 58.9439389 32.3517046 58.9439389 19.6968743 60.9040722 19.6968743 64.9643483 32.3146582 73.5399315 32.3146582 68.2195697 17.8995737C71.0197601 16.5791079 72.5598649 13.6080599 72.5598649 9.90341987M37.1025934 26.4459215C33.2523315 26.4459215 32.2022601 23.2914755 32.2022601 16.6157875 32.2022601 9.53662382 33.4973482 6.74897388 37.1725982 6.74897388 40.9878576 6.74897388 42.0729314 9.86674026 42.0729314 16.5791079 42.0729314 23.621592 40.742841 26.4459215 37.1025934 26.4459215M37.3826124.403402291L37.0325886.403402291C29.2620602.403402291 24.2917221 4.91499365 24.2917221 16.7991855 24.2917221 26.9961156 26.7068864 32.9018987 36.8925791 32.9018987L37.2076005 32.9018987C45.0131314 32.8648523 49.9834694 28.3899406 49.9834694 16.5424283 49.9834694 6.34549823 47.5333028.403402291 37.3826124.403402291"/>
    <polygon fill="#C93C2E" points="15.961 17.533 8.401 .954 0 .954 0 32.351 6.79 32.351 6.79 14.782 14.666 32.351 22.751 32.351 22.751 32.315 22.751 .954 15.961 .954"/>
  </g>
</svg>
