<?xml version="1.0" encoding="UTF-8"?>
<svg width="18px" height="22px" viewBox="0 0 18 22" version="1.1" xmlns="http://www.w3.org/2000/svg" xmlns:xlink="http://www.w3.org/1999/xlink">
    <!-- Generator: sketchtool 49.3 (51167) - http://www.bohemiancoding.com/sketch -->
    <title>4CB8CB78-91B9-4A81-9196-257CD2650C02</title>
    <desc>Created with sketchtool.</desc>
    <defs></defs>
    <g id="Artikel" stroke="none" stroke-width="1" fill="none" fill-rule="evenodd">
        <g id="Artikel---Citat-+-Faktaboks" transform="translate(-371.000000, -1519.000000)" fill="#C23D26">
            <g id="Element/Artikel" transform="translate(331.000000, 334.000000)">
                <g id="Citat" transform="translate(37.000000, 1179.000000)">
                    <g id="Icon/Citat" transform="translate(0.000000, 3.000000)">
                        <g id="Citat" transform="translate(3.000000, 2.531250)">
                            <rect id="Rectangle-16" transform="translate(12.750000, 7.171875) rotate(-30.000000) translate(-12.750000, -7.171875) " x="10.5" y="0.84375" width="4.5" height="12.65625"></rect>
                            <polygon id="Rectangle-16-Copy-2" transform="translate(5.250000, 7.593750) rotate(-30.000000) translate(-5.250000, -7.593750) " points="3 1.6875 7.5 1.6875 7.47325627 13.4032222 3 13.5"></polygon>
                            <rect id="Rectangle-16-Copy" transform="translate(12.750000, 15.609375) scale(1, -1) rotate(-30.000000) translate(-12.750000, -15.609375) " x="10.5" y="9.28125" width="4.5" height="12.65625"></rect>
                            <polygon id="Rectangle-16-Copy-3" transform="translate(5.250000, 15.187500) scale(1, -1) rotate(-30.000000) translate(-5.250000, -15.187500) " points="3 9.28125 7.5 9.28125 7.46029866 21.023409 3 21.09375"></polygon>
                        </g>
                    </g>
                </g>
            </g>
        </g>
    </g>
</svg>