<?xml version="1.0" encoding="UTF-8"?>
<svg width="86px" height="64px" viewBox="0 0 86 64" version="1.1" xmlns="http://www.w3.org/2000/svg" xmlns:xlink="http://www.w3.org/1999/xlink">
    <!-- Generator: Sketch 46.2 (44496) - http://www.bohemiancoding.com/sketch -->
    <title>Shape</title>
    <desc>Created with Sketch.</desc>
    <defs></defs>
    <g id="Page-1" stroke="none" stroke-width="1" fill="none" fill-rule="evenodd">
        <g id="noun_1211569_cc" fill-rule="nonzero" fill="#FFFFFF">
            <path d="M14.4,42.5 C17.4,42.5 19.8,40.1 19.8,37.1 C19.8,34.1 17.4,31.7 14.4,31.7 C11.4,31.7 9,34.1 9,37.1 C9,40.1 11.4,42.5 14.4,42.5 C14.4,42.5 14.4,42.5 14.4,42.5 Z M14.4,33.4 C16.4,33.4 18.1,35.1 18.1,37.1 C18.1,39.1 16.4,40.8 14.4,40.8 C12.4,40.8 10.7,39.1 10.7,37.1 L10.7,37.1 C10.7,35.1 12.3,33.5 14.4,33.4 Z M58.1,11.2 L27.3,11.2 L27.3,9.5 L58,9.5 L58,11.2 L58.1,11.2 Z M66.6,34.6 L66.6,26.5 L82.7,20.5 L78.8,9.9 L66.7,14.4 L66.7,0.2 L18.9,0.2 L18.9,24.2 L0.7,24.2 L0.7,63.7 L85.3,63.7 L85.3,34.6 L66.6,34.6 Z M78.8,37 L72.3,43.9 L63.1,43.9 L69.6,37 L78.8,37 Z M67.3,37 L60.8,43.9 L51.6,43.9 L58.1,37 L67.3,37 Z M46,34.1 L64.3,27.3 L64.3,34.6 L46,34.6 L46,34.1 Z M56.3,27.8 L48.3,23.8 L56.9,20.6 L64.9,24.6 L56.3,27.8 Z M54.2,28.6 L46,31.6 L46,24.6 L46.2,24.5 L54.2,28.6 Z M46,37 L55.9,37 L49.4,43.9 L46,43.9 L46,37 Z M77.3,13 L79.6,19.2 L77.8,19.9 L69.8,15.9 L77.3,13 Z M67.7,16.6 L75.7,20.6 L67,23.8 L59,19.8 L67.7,16.6 Z M21.2,2.6 L64.2,2.6 L64.2,15.3 L57.2,17.9 L27.3,17.9 L27.3,19.6 L52.7,19.6 L40.1,24.3 L21.2,24.3 L21.2,2.6 Z M43.6,26.6 L43.6,47.6 L32.6,36.6 L17.6,51.6 L12,46.1 L3,55.1 L3,26.6 L43.6,26.6 Z M3,61.4 L3,57.5 L12,48.5 L17.6,54.1 L32.6,39.1 L43.6,50.1 L43.6,61.4 L3,61.4 L3,61.4 Z M83,61.4 L46,61.4 L46,45.6 L83,45.6 L83,61.4 Z M83,43.9 L74.6,43.9 L81,37 L83,37 L83,43.9 Z" id="Shape"></path>
        </g>
    </g>
</svg>