<svg xmlns="http://www.w3.org/2000/svg" width="56" height="32" viewBox="0 0 56 32">
  <g fill="none" fill-rule="evenodd">
    <rect width="56" height="32" fill="#C23D26"/>
    <g fill="#FFFFFF" transform="translate(11.286 7.667)">
      <path d="M8.45091606,6.84086617 C8.28623196,6.2431239 8.06665317,5.73504296 7.79217968,5.31662337 C7.50398251,4.89820378 7.17461432,4.58438909 6.79035143,4.36023573 C6.40608854,4.13608238 6.02182565,4.03147748 5.56894438,4.03147748 L0.463737412,4.03147748 L0.463737412,6.75120483 L0.463737412,8.35016541 L3.20847234,8.35016541 L3.20847234,6.19829323 L4.59456348,6.19829323 C4.8004186,6.19829323 4.99255005,6.2431239 5.17095782,6.33278524 C5.33564191,6.42244658 5.48660234,6.57188215 5.61011541,6.78109194 C5.73362848,6.99030174 5.8296942,7.27422932 5.89831257,7.60298757 C5.96693095,7.94668938 5.9943783,8.36510897 5.9943783,8.8731899 C5.9943783,9.39621439 5.95320727,9.8445211 5.87086523,10.2031665 C5.78852318,10.5767554 5.66501011,10.8756265 5.52777336,11.0997799 C5.28074722,11.4584252 4.910208,11.7572964 4.42987939,11.7572964 C3.64762993,11.7572964 3.30453807,11.0698928 3.30453807,11.0698928 L0.450013738,11.0698928 L0.450013738,16.7783315 L3.19474867,16.7783315 L3.19474867,13.1619907 C3.63390626,13.6401845 4.36126101,13.8643379 4.910208,13.8643379 C5.47287866,13.8643379 5.98065462,13.7447894 6.44725956,13.490749 C6.90014082,13.2367085 7.31185106,12.8930067 7.64121926,12.4447 C7.97058745,11.9963933 8.23133727,11.4733688 8.40974504,10.8756265 C8.58815281,10.2778842 8.68421853,9.60542419 8.68421853,8.90307702 C8.68421853,8.12601206 8.61560016,7.43860844 8.45091606,6.84086617"/>
      <polygon points="10.4 13.715 13.021 13.715 13.021 .684 10.4 .684"/>
      <path d="M18.0711571 4.22574372L18.0711571 10.2479971C18.0711571 10.7112474 18.1672228 11.0848363 18.3730779 11.3388768 18.5653466 11.5929172 18.8534066 11.7274093 19.2376694 11.7274093 19.5260038 11.7274093 19.7866164 11.667635 20.0473662 11.533143 20.2943924 11.398651 20.5414185 11.2193283 20.774721 10.995175L20.774721 4.22574372 23.3960801 4.22574372 23.3960801 13.7149023 21.7628256 13.7149023C21.4334574 13.7149023 21.2276023 13.5505232 21.1178129 13.2367085L20.9531288 12.6837969C20.7885819 12.8631196 20.6100369 13.0274987 20.4316291 13.1619907 20.2532214 13.3114263 20.0610899 13.4309747 19.8552348 13.5355796 19.6493797 13.6401845 19.4298009 13.7149023 19.1964984 13.7746765 18.9631959 13.8344508 18.7025834 13.8643379 18.414249 13.8643379 17.9339204 13.8643379 17.5084864 13.7746765 17.1379472 13.5953539 16.767408 13.4160312 16.4517635 13.1619907 16.2047373 12.8332325 15.9578484 12.5044742 15.7655798 12.1308853 15.628343 11.6825786 15.5048299 11.2492154 15.4362116 10.7560781 15.4362116 10.2330536L15.4362116 4.22574372 18.0711571 4.22574372zM31.4655459 6.30288318C31.3969275 6.42243164 31.3283092 6.49714942 31.2458299 6.55692365 31.1636251 6.60175432 31.0675593 6.63164143 30.9577699 6.63164143 30.8341196 6.63164143 30.7107438 6.60175432 30.5872307 6.54198009 30.4637177 6.48220586 30.3264809 6.42243164 30.1892442 6.34771385 30.0520074 6.28793962 29.8873233 6.21322184 29.7089155 6.15344761 29.5303705 6.09367339 29.3245154 6.06378627 29.0913502 6.06378627 28.761982 6.06378627 28.5010949 6.13850406 28.3228244 6.27299607 28.1444166 6.40748808 28.0620746 6.60175432 28.0620746 6.84085123 28.0620746 7.02017391 28.1169693 7.16960948 28.2404824 7.27421438 28.3502718 7.39376283 28.5149559 7.49836773 28.7069501 7.58802907 28.8992187 7.67769041 29.1186603 7.76735175 29.3521 7.84206954 29.5989889 7.91678732 29.8461523 8.00644866 30.0931784 8.11105356 30.3402046 8.21565846 30.6009544 8.32026336 30.8341196 8.45475537 31.081283 8.58924738 31.2871381 8.7536265 31.4792696 8.93294919 31.671401 9.12721542 31.8223614 9.35136878 31.9458745 9.63529636 32.0556639 9.90428038 32.1242823 10.2330386 32.1242823 10.6215711 32.1242823 11.0848214 32.0419402 11.5181845 31.8909798 11.9216606 31.7400194 12.3251366 31.4929932 12.6538948 31.1910724 12.952766 30.8754279 13.2366936 30.4910278 13.4608469 30.0382837 13.625226 29.5854025 13.7896052 29.0500419 13.8643229 28.4600612 13.8643229 28.1580031 13.8643229 27.8562195 13.8344358 27.5680223 13.7746616 27.2659642 13.7148874 26.9779043 13.625226 26.7034308 13.5206211 26.4289573 13.4160162 26.1680702 13.2964678 25.934905 13.1470322 25.7016025 12.9975966 25.4957474 12.8481611 25.3310633 12.683782L25.934905 11.637733C26.0035234 11.5181845 26.0858654 11.4135796 26.1956548 11.3538054 26.305307 11.2790876 26.4289573 11.2492005 26.5936414 11.2492005 26.7446018 11.2492005 26.8818386 11.2790876 27.0053516 11.3538054 27.1287275 11.4285232 27.2523778 11.503241 27.403201 11.5929023 27.5404377 11.6825636 27.705259 11.7572814 27.8973905 11.8319992 28.0893847 11.906717 28.3228244 11.9366041 28.6110216 11.9366041 28.8168767 11.9366041 28.9814236 11.906717 29.1325212 11.8618863 29.269758 11.8170557 29.3795474 11.7572814 29.4756131 11.6676201 29.5579551 11.5929023 29.6265735 11.503241 29.6676073 11.3986361 29.7089155 11.2940312 29.7226392 11.2043698 29.7226392 11.0997649 29.7226392 10.9054987 29.6676073 10.7560631 29.5442314 10.6365147 29.4207184 10.5169662 29.269758 10.4123613 29.0776265 10.3227 28.8854951 10.2330386 28.6659163 10.1583208 28.4188901 10.0686595 28.171864 9.99394172 27.9248378 9.90428038 27.6776745 9.81461904 27.4307856 9.71001414 27.1700357 9.60540924 26.9367333 9.45597368 26.6897071 9.32148166 26.4701283 9.14215898 26.2779969 8.93294919 26.0858654 8.72373939 25.934905 8.46969892 25.8113919 8.15588423 25.6877416 7.85701309 25.6329842 7.48342417 25.6329842 7.05006102 25.6329842 6.64658499 25.7016025 6.25805251 25.852563 5.89940715 25.9897997 5.54076178 26.2093785 5.21200353 26.4975757 4.94301951 26.7856356 4.67403549 27.1425884 4.44988213 27.581746 4.28550301 28.0207663 4.12112388 28.5286795 4.0464061 29.1050739 4.0464061 29.4207184 4.0464061 29.7226392 4.07629321 30.0245601 4.13606744 30.3264809 4.19584167 30.6009544 4.28550301 30.8617042 4.39010791 31.122454 4.4947128 31.3557565 4.62920481 31.5753353 4.77864038 31.7947769 4.92807595 31.9733219 5.09245508 32.1378687 5.27177776L31.4655459 6.30288318z"/>
    </g>
  </g>
</svg>
